<svg width="380" height="600" viewBox="0 0 380 600" xmlns="http://www.w3.org/2000/svg" font-family="Inter, -apple-system, Segoe UI, sans-serif">
<title>AORANE working logic — from raw data to health insight</title>
<defs>
  <marker id="arrow2" viewBox="0 0 10 10" refX="8" refY="5" markerWidth="6" markerHeight="6" orient="auto-start-reverse">
    <path d="M2 1L8 5L2 9" fill="none" stroke="#5B6B7A" stroke-width="1.5" stroke-linecap="round" stroke-linejoin="round"/>
  </marker>
</defs>

<rect width="380" height="600" fill="#FFFFFF"/>

<rect x="80" y="40" width="220" height="56" rx="8" fill="#F1F3F5" stroke="#7A8894" stroke-width="1"/>
<text x="190" y="61" text-anchor="middle" font-size="14" font-weight="600" fill="#3A4652">Data inputs</text>
<text x="190" y="80" text-anchor="middle" font-size="12" fill="#5B6B7A">Wearables + manual logs</text>
<line x1="190" y1="96" x2="190" y2="156" stroke="#5B6B7A" stroke-width="1.5" marker-end="url(#arrow2)"/>

<rect x="80" y="156" width="220" height="56" rx="8" fill="#EAFAF7" stroke="#0F9C8D" stroke-width="1"/>
<text x="190" y="177" text-anchor="middle" font-size="14" font-weight="600" fill="#0F6B60">Backend API</text>
<text x="190" y="196" text-anchor="middle" font-size="12" fill="#2E7A6E">Node.js, Express, Postgres</text>
<line x1="190" y1="212" x2="190" y2="272" stroke="#5B6B7A" stroke-width="1.5" marker-end="url(#arrow2)"/>

<rect x="80" y="272" width="220" height="56" rx="8" fill="#F4EEFC" stroke="#7B4FCB" stroke-width="1"/>
<text x="190" y="293" text-anchor="middle" font-size="14" font-weight="600" fill="#5A2FA0">Scoring engine</text>
<text x="190" y="312" text-anchor="middle" font-size="12" fill="#6B4A9E">WHO/ICMR weighted formula</text>
<line x1="190" y1="328" x2="190" y2="388" stroke="#5B6B7A" stroke-width="1.5" marker-end="url(#arrow2)"/>

<rect x="80" y="388" width="220" height="56" rx="8" fill="#FFF1EE" stroke="#E0603F" stroke-width="1"/>
<text x="190" y="409" text-anchor="middle" font-size="14" font-weight="600" fill="#A6371F">AI layer</text>
<text x="190" y="428" text-anchor="middle" font-size="12" fill="#8A4A38">Predictions, diet, coaching</text>
<line x1="190" y1="444" x2="190" y2="504" stroke="#5B6B7A" stroke-width="1.5" marker-end="url(#arrow2)"/>

<rect x="80" y="504" width="220" height="56" rx="8" fill="#F1F3F5" stroke="#7A8894" stroke-width="1"/>
<text x="190" y="525" text-anchor="middle" font-size="14" font-weight="600" fill="#3A4652">Outputs</text>
<text x="190" y="544" text-anchor="middle" font-size="12" fill="#5B6B7A">Dashboard, PDF, WhatsApp</text>
</svg>
